<svg viewBox="0 0 500 500" width="500" height="500" preserveAspectRatio="xMidYMid meet" style="width: 100%; height: 100%; transform: translate3d(0px, 0px, 0px); content-visibility: visible;"><defs><clipPath id="__lottie_element_2"><rect width="500" height="500" x="0" y="0"></rect></clipPath></defs><g clip-path="url(#__lottie_element_2)"><g transform="matrix(1,0,0,1,0,0)" opacity="1" style="display: block;"><g opacity="1" transform="matrix(1,0,0,1,250,194.48699951171875)"><path fill="rgb(223,227,228)" fill-opacity="1" d="M0,-41.6349983215332C-22.89900016784668,-41.6349983215332-41.6349983215332,-22.89900016784668-41.6349983215332,0C-41.6349983215332,22.89900016784668-22.89900016784668,41.6349983215332,0,41.6349983215332C22.89900016784668,41.6349983215332,41.6349983215332,22.89900016784668,41.6349983215332,0C41.6349983215332,-23.593000411987305,22.89900016784668,-41.6349983215332,0,-41.6349983215332z"></path></g><g opacity="1" transform="matrix(1,0,0,1,250,188.93600463867188)"><path fill="rgb(245,245,246)" fill-opacity="1" d="M0,-16.65399932861328C9.197999954223633,-16.65399932861328,16.65399932861328,-9.197999954223633,16.65399932861328,0C16.65399932861328,9.197999954223633,9.197999954223633,16.65399932861328,0,16.65399932861328C-9.197999954223633,16.65399932861328,-16.65399932861328,9.197999954223633,-16.65399932861328,0C-16.65399932861328,-9.197999954223633,-9.197999954223633,-16.65399932861328,0,-16.65399932861328z"></path></g><g opacity="1" transform="matrix(1,0,0,1,250,223.28399658203125)"><path fill="rgb(182,189,194)" fill-opacity="1" d="M0,12.836999893188477C10.409000396728516,12.836999893188477,19.43000030517578,9.368000030517578,27.062999725341797,2.428999900817871C24.28700065612793,-8.673999786376953,13.184000015258789,-12.836999893188477,0,-12.836999893188477C-13.184000015258789,-12.836999893188477,-24.28700065612793,-8.673999786376953,-27.062999725341797,2.428999900817871C-20.124000549316406,9.368000030517578,-10.409000396728516,12.836999893188477,0,12.836999893188477z"></path></g></g><g transform="matrix(1,0,0,1,250,270.8169860839844)" opacity="1" style="display: block;"><g opacity="1" transform="matrix(1,0,0,1,0,0)"><path fill="rgb(237,240,241)" fill-opacity="1" d="M76.33049774169922,-13.878499984741211C76.33049774169922,-13.878499984741211,76.33049774169922,13.878499984741211,76.33049774169922,13.878499984741211C76.33049774169922,13.878499984741211,-76.33049774169922,13.878499984741211,-76.33049774169922,13.878499984741211C-76.33049774169922,13.878499984741211,-76.33049774169922,-13.878499984741211,-76.33049774169922,-13.878499984741211C-76.33049774169922,-13.878499984741211,76.33049774169922,-13.878499984741211,76.33049774169922,-13.878499984741211z"></path></g></g><g transform="matrix(0.7697734832763672,0,0,1,226.48165893554688,270.8169860839844)" opacity="1" style="display: block;"><g opacity="1" transform="matrix(1,0,0,1,0,0)"><path fill="rgb(204,208,212)" fill-opacity="1" d="M55.92850112915039,-4.800000190734863C55.92850112915039,-4.800000190734863,55.92850112915039,4.800000190734863,55.92850112915039,4.800000190734863C55.92850112915039,4.800000190734863,-55.92850112915039,4.800000190734863,-55.92850112915039,4.800000190734863C-55.92850112915039,4.800000190734863,-55.92850112915039,-4.800000190734863,-55.92850112915039,-4.800000190734863C-55.92850112915039,-4.800000190734863,55.92850112915039,-4.800000190734863,55.92850112915039,-4.800000190734863z"></path></g></g></g></svg>